P3
3 3
255

255 255 255 255 255 000 255 000 000
000 255 255 255 000 255 130 000 000
000 000 255 000 000 130 000 000 000